# xmcd
#
# Track frame offsets: 
#        150
#        1743
#        13627
#        27500
#        43851
#        64989
#        84945
#        109173
#        129803
#        148485
#        168868
#        186583
#        202809
#        224107
#        244784
#        265817
#        283073
#        307414
#        317551
#        333173
#
# Disc length: 4722 seconds
#
# Revision: 0
# Processed by: cddbd v1.5.2PL0 Copyright (c) Steve Scherf et al.
# Submitted via: ExactAudioCopyFreeDBPlugin 1.0
#
DISCID=2b127014
DTITLE=Snoop Dogg - The Best Of [disc 02]
DYEAR=2005
DGENRE=Hip-Hop
TTITLE0=WBALLZ (Interlude)
TTITLE1=Fresh Pair Of Panties On
TTITLE2=Bang Out
TTITLE3=Hell Yeah [Stone Cold Steve Austin Theme] (feat. W.C.)
TTITLE4=Ride On - Caught Up! (feat. Kurupt)
TTITLE5=Drop It Like It's Hot (feat. Pharrell)
TTITLE6=Snoopafella
TTITLE7=Girl Like U (feat. Nelly)
TTITLE8=Loosen' Control (feat. Butch Cassidy)
TTITLE9=Pass It Pass It
TTITLE10=Signs (feat. Charlie Wilson And Justin Timberlake)
TTITLE11=Gin and Juice II
TTITLE12=Snoop Dogg feat. The Doors - Riders On The Storm
TTITLE13=Stacey Adams (feat. KoKane)
TTITLE14=Let's Get Blown
TTITLE15=The One And Only
TTITLE16=Can I Get A Flicc Witchu (feat. Bootsy Collins)
TTITLE17=G Bedtime Stories
TTITLE18=The Bidness
TTITLE19=No Thang On Me (feat. Bootsy Collins)
EXTD=
EXTT0=
EXTT1=
EXTT2=
EXTT3=
EXTT4=
EXTT5=
EXTT6=
EXTT7=
EXTT8=
EXTT9=
EXTT10=
EXTT11=
EXTT12=
EXTT13=
EXTT14=
EXTT15=
EXTT16=
EXTT17=
EXTT18=
EXTT19=
PLAYORDER=
